<svg id="Artwork" xmlns="http://www.w3.org/2000/svg" viewBox="0 0 36 36"><path d="M30,20.84a1.13,1.13,0,0,0-1.58-.24L18,28.32v.32a1.08,1.08,0,1,1,0,2.16v.05a1.08,1.08,0,0,0,.67-.22l11.12-8.21A1.13,1.13,0,0,0,30,20.84Z" style="fill:#669df6"/><path d="M18,30.8a1.08,1.08,0,1,1,0-2.16h0v-.32L7.55,20.6a1.13,1.13,0,1,0-1.34,1.82l11.12,8.21a1.12,1.12,0,0,0,.67.22V30.8Z" style="fill:#aecbfa"/><path d="M18,27.51a2.21,2.21,0,1,0,2.21,2.21A2.21,2.21,0,0,0,18,27.51Zm0,3.29a1.08,1.08,0,1,1,1.08-1.08A1.09,1.09,0,0,1,18,30.8Z" style="fill:#4285f4"/><path d="M9,9.16A1.14,1.14,0,0,1,7.83,8V5.2a1.13,1.13,0,1,1,2.26,0V8A1.13,1.13,0,0,1,9,9.16Z" style="fill:#aecbfa"/><circle cx="8.96" cy="18" r="1.13" style="fill:#aecbfa"/><circle cx="8.96" cy="14.68" r="1.13" style="fill:#aecbfa"/><circle cx="8.96" cy="11.35" r="1.13" style="fill:#aecbfa"/><path d="M27,12.45a1.12,1.12,0,0,1-1.13-1.13V8.5a1.13,1.13,0,0,1,2.26,0v2.82A1.13,1.13,0,0,1,27,12.45Z" style="fill:#4285f4"/><circle cx="27.04" cy="18.02" r="1.13" style="fill:#4285f4"/><circle cx="27.04" cy="14.64" r="1.13" style="fill:#4285f4"/><circle cx="27.04" cy="5.21" r="1.13" style="fill:#4285f4"/><path d="M18,22.47a1.13,1.13,0,0,1-1.13-1.13V18.52a1.13,1.13,0,1,1,2.26,0v2.82A1.13,1.13,0,0,1,18,22.47Z" style="fill:#669df6"/><circle cx="18" cy="24.67" r="1.13" style="fill:#669df6"/><circle cx="18" cy="15.2" r="1.13" style="fill:#669df6"/><circle cx="18" cy="11.88" r="1.13" style="fill:#669df6"/><path d="M22.52,15.81a1.13,1.13,0,0,1-1.13-1.13V11.85a1.13,1.13,0,0,1,2.26,0v2.83A1.14,1.14,0,0,1,22.52,15.81Z" style="fill:#4285f4"/><circle cx="22.52" cy="8.53" r="1.13" style="fill:#4285f4"/><circle cx="22.52" cy="21.29" r="1.13" style="fill:#4285f4"/><circle cx="22.52" cy="17.96" r="1.13" style="fill:#4285f4"/><circle cx="13.48" cy="21.29" r="1.13" style="fill:#aecbfa"/><circle cx="13.48" cy="11.88" r="1.13" style="fill:#aecbfa"/><circle cx="13.48" cy="8.53" r="1.13" style="fill:#aecbfa"/><path d="M13.48,19.1A1.14,1.14,0,0,1,12.35,18V15.14a1.13,1.13,0,1,1,2.26,0V18A1.13,1.13,0,0,1,13.48,19.1Z" style="fill:#aecbfa"/></svg>